<svg xmlns="http://www.w3.org/2000/svg" fill="none" viewBox="0 0 143 40"><g fill="#fff" clip-path="url(#a)"><path d="M121.03 10.417c-2.744 0-5.089.375-6.408 3.519a5.968 5.968 0 0 0-1.881-2.322c-1.058-.798-2.32-1.197-3.737-1.197-2.394 0-4.315.106-5.74 1.93v-1.466h-3.94v20.362h3.94V19.685c0-1.743.423-3.176 1.254-4.243.814-1.06 1.824-1.572 3.078-1.572 2.719 0 4.038 1.751 4.038 5.36v12.013h3.941V19.685c0-1.604.44-2.997 1.319-4.146.863-1.124 1.873-1.67 3.086-1.67 1.449 0 2.442.416 3.037 1.28.619.895.928 2.394.928 4.463v11.63h3.941V18.79c0-5.555-2.305-8.365-6.856-8.365v-.008zM12.132 21.511c-.505-.464-1.132-.88-1.848-1.246-.7-.359-1.49-.709-2.362-1.035a80.381 80.381 0 0 1-1.726-.7 5.8 5.8 0 0 1-1.213-.676 2.519 2.519 0 0 1-.7-.782c-.155-.285-.228-.652-.228-1.083 0-.342.073-.644.228-.92.155-.286.375-.53.66-.734a3.51 3.51 0 0 1 1.082-.505 5.437 5.437 0 0 1 1.474-.187c1.783 0 3.38.456 4.739 1.344l.627.415v-4.186l-.245-.106c-1.384-.603-2.963-.912-4.706-.912-.985 0-1.954.13-2.882.374a8.336 8.336 0 0 0-2.516 1.132 5.91 5.91 0 0 0-1.8 1.906c-.455.766-.683 1.654-.683 2.64 0 .797.122 1.514.366 2.117a4.95 4.95 0 0 0 1.083 1.637c.472.48 1.05.888 1.734 1.254.668.359 1.45.71 2.329 1.06.619.244 1.197.472 1.734.692.513.211.961.448 1.336.708.358.245.846.855.846.855s.31.49.285 1.108c0 .578.082 2.142-3.712 2.346-1.946 0-3.762-.61-5.39-1.808l-.652-.48v4.414l.22.114c1.53.806 3.355 1.214 5.414 1.214 1.043 0 2.06-.123 3.021-.359a8.164 8.164 0 0 0 2.59-1.108 5.93 5.93 0 0 0 1.831-1.906c.464-.773.7-1.694.7-2.728 0-.847-.146-1.588-.431-2.216a5.199 5.199 0 0 0-1.213-1.653h.008zM27.016 10.189c-2.663 0-4.926 1.01-6.725 3.006-1.784 1.987-2.687 4.577-2.687 7.705 0 3.307.83 5.921 2.467 7.762 1.653 1.857 3.94 2.802 6.815 2.802 2.638 0 4.836-.546 6.546-1.621.171-.106.342-.212.505-.326l.17-.122-.659-3.47-.008.008c-1.759 1.377-3.713 2.077-5.805 2.077-1.832 0-3.29-.554-4.324-1.645-.969-1.026-1.514-2.492-1.628-4.35h13.776v-2.052c0-3.022-.741-5.433-2.199-7.151-1.473-1.743-3.574-2.623-6.244-2.623zm-5.244 8.365c.359-1.825 1.23-3.242 2.59-4.187a4.102 4.102 0 0 1 2.052-.7c1.685-.122 2.93.31 3.81 1.344.725.847 1.132 2.044 1.197 3.543h-9.657.008zM49.691 10.189c-2.695 0-4.853.22-6.424 2.272v-1.816h-3.94V40h3.94V29.745c1.392 1.686 3.249 1.719 5.528 1.719 2.874 0 5.358-.636 7.019-2.688 1.645-2.028 2.304-5.172 2.304-8.52 0-3.022-.74-5.473-2.206-7.29-1.49-1.84-3.575-2.777-6.213-2.777h-.008zm2.874 15.818c-1.001 1.352-2.353 2.044-4.128 2.012-1.62-.033-2.72-.513-3.696-1.564-.986-1.059-1.466-2.313-1.466-3.836V19.89c0-1.8.521-3.307 1.563-4.496 1.034-1.18 2.37-1.76 4.08-1.76 1.603 0 2.833.555 3.77 1.703.936 1.157 1.416 2.786 1.416 4.863 0 2.484-.513 4.439-1.53 5.807h-.009zM69.126 4.716l-3.94 1.279v4.659H61.83v3.486h3.354v11.159c0 4.015 1.914 6.133 5.537 6.133 1.067 0 1.962-.163 2.703-.472v-3.405l-.024-.13c-.505.382-1.091.57-1.8.57-.895 0-1.53-.228-1.897-.684-.383-.481-.578-1.344-.578-2.55V14.156h4.926V10.67h-4.926V4.716zM87.177 10.189c-2.662 0-4.926 1.01-6.725 3.006-1.783 1.987-2.687 4.577-2.687 7.705 0 3.307.83 5.921 2.467 7.762 1.653 1.857 3.94 2.802 6.815 2.802 2.654 0 4.86-.554 6.587-1.646v-3.77l-.025-.123c-1.758 1.385-3.72 2.085-5.813 2.085-1.832 0-3.29-.554-4.324-1.645-.968-1.026-1.514-2.492-1.628-4.35H95.62v-2.052c0-3.022-.741-5.433-2.199-7.151-1.473-1.743-3.574-2.623-6.245-2.623zm-5.244 8.365c.359-1.825 1.23-3.242 2.59-4.187a4.102 4.102 0 0 1 2.052-.7c1.685-.122 2.93.31 3.81 1.344.725.847 1.132 2.044 1.197 3.543h-9.657.009zM137.3 0a5.696 5.696 0 0 0-5.699 5.702c0 3.152 2.548 5.701 5.699 5.701s5.7-2.55 5.7-5.702A5.697 5.697 0 0 0 137.3 0zm0 8.487c-1.539 0-2.785-1.246-2.785-2.786s1.246-2.785 2.785-2.785 2.785 1.246 2.785 2.785-1.246 2.786-2.785 2.786z"/></g><defs><clipPath id="a"><path fill="#fff" d="M0 0h143v40H0z"/></clipPath></defs></svg>